<?xml version="1.0" encoding="iso-8859-1"?>
<!-- Generator: Adobe Illustrator 19.0.0, SVG Export Plug-In . SVG Version: 6.00 Build 0)  -->
<svg version="1.1" id="Capa_1" xmlns="http://www.w3.org/2000/svg" xmlns:xlink="http://www.w3.org/1999/xlink" x="0px" y="0px"
	 viewBox="0 0 496 496" style="enable-background:new 0 0 496 496;" xml:space="preserve">
<g>
	<path style="fill:#FFA64D;" d="M248,152c0,53.016,42.984,96,96,96V56C290.984,56,248,98.984,248,152z"/>
	<path style="fill:#FFA64D;" d="M200,152c0-55.808,31.808-104.096,78.224-128H8v256h270.224C231.808,256.096,200,207.808,200,152z"
		/>
</g>
<g>
	<path style="fill:#333333;" d="M80,48H32v48h48V48z M64,80H48V64h16V80z"/>
	<path style="fill:#333333;" d="M32,208v48h48v-48H32z M64,240H48v-16h16V240z"/>
	<path style="fill:#333333;" d="M496,152C496,68.184,427.816,0,344,0c-24.248,0-47.112,5.856-67.472,16H0v272h276.528
		c6.272,3.12,12.752,5.864,19.472,8.112V320h-16v16h16v112c0,26.472,21.528,48,48,48s48-21.528,48-48V336h16v-16h-16v-23.888
		C452.336,275.952,496,219.032,496,152z M480,152c0,74.992-61.008,136-136,136c-23.056,0-44.776-5.808-63.824-15.976V272h-0.04
		C237.264,249.088,208,203.912,208,152c0-74.992,61.008-136,136-136S480,77.008,480,152z M208,80V64h12.296
		c-3.664,5.128-7.104,10.424-10.112,16H208z M112,80V64h48v48h-16V80H112z M96,32v80H16V32H96z M48,128h16v16H48V128z M16,192h80v80
		H16V192z M112,272v-96H16v-48h16v32h48v-32h32V96h16v32h48V48h-64V32h139.048c-6.28,4.872-12.152,10.216-17.6,16H192v48h10.824
		c-5.968,14.984-9.536,31.128-10.416,48H160v48h37.52c8.8,32.176,27.872,60.072,53.528,80H112z M194.088,176H176v-16h16.408
		C192.688,165.416,193.248,170.752,194.088,176z M376,448c0,17.648-14.352,32-32,32s-32-14.352-32-32V336h64V448z M376,320h-64
		v-19.456c10.328,2.224,21.016,3.456,32,3.456s21.672-1.232,32-3.456V320z"/>
	<path style="fill:#333333;" d="M344,256c24.104,0,47.592-8.44,66.16-23.752l-10.184-12.344
		c-13.632,11.256-30.432,18.104-47.968,19.712V64.408C396.784,68.464,432,106.176,432,152c0,21.192-7.64,41.672-21.504,57.648
		l12.08,10.488C438.968,201.248,448,177.056,448,152c0-57.344-46.656-104-104-104S240,94.656,240,152S286.656,256,344,256z
		 M256.408,160H288v-32h16v48h-44.592C257.944,170.84,256.904,165.504,256.408,160z M336,64.408V239.6
		c-30.704-2.784-56.848-21.4-70.288-47.592H320V112h-48v32h-15.592C260.224,101.856,293.856,68.224,336,64.408z"/>
	<path style="fill:#333333;" d="M128,256h48v-48h-48V256z M144,224h16v16h-16V224z"/>
	<rect x="192" y="240" style="fill:#333333;" width="16" height="16"/>
	<rect x="128" y="144" style="fill:#333333;" width="16" height="48"/>
</g>
<g>
</g>
<g>
</g>
<g>
</g>
<g>
</g>
<g>
</g>
<g>
</g>
<g>
</g>
<g>
</g>
<g>
</g>
<g>
</g>
<g>
</g>
<g>
</g>
<g>
</g>
<g>
</g>
<g>
</g>
</svg>
