<?xml version="1.0" encoding="iso-8859-1"?>
<!-- Generator: Adobe Illustrator 19.0.0, SVG Export Plug-In . SVG Version: 6.00 Build 0)  -->
<svg version="1.1" id="Layer_1" xmlns="http://www.w3.org/2000/svg" xmlns:xlink="http://www.w3.org/1999/xlink" x="0px" y="0px"
	 viewBox="0 0 512 512" style="enable-background:new 0 0 512 512;" xml:space="preserve">
<g>
	<g>
		<path d="M266.057,54.857h-20.114C216.686,54.857,192,79.543,192,108.8v20.114c0,29.257,23.771,53.943,53.943,53.943h20.114
			c29.257,0,53.943-24.686,53.943-53.943V108.8C320,79.543,296.229,54.857,266.057,54.857z M301.714,128.914
			c0,19.2-15.543,35.657-35.657,35.657h-20.114c-19.2,0-35.657-15.543-35.657-35.657V108.8c0-19.2,16.457-35.657,35.657-35.657
			h20.114c19.2,0,35.657,16.457,35.657,35.657V128.914z"/>
	</g>
</g>
<g>
	<g>
		<path d="M256,164.571c-30.171,0-54.857,20.114-54.857,45.714c0,25.6,24.686,45.714,54.857,45.714s54.857-20.114,54.857-45.714
			C310.857,184.686,286.171,164.571,256,164.571z M256,237.714c-20.114,0-36.571-11.886-36.571-27.429
			c0-15.543,16.457-27.429,36.571-27.429s36.571,11.886,36.571,27.429C292.571,225.829,276.114,237.714,256,237.714z"/>
	</g>
</g>
<g>
	<g>
		<rect x="228.571" y="237.714" width="54.857" height="82.286"/>
	</g>
</g>
<g>
	<g>
		<path d="M256,301.714c-40.229,0-73.143,32.914-73.143,73.143v36.571c0,40.229,32.914,73.143,73.143,73.143
			s73.143-32.914,73.143-73.143v-36.571C329.143,334.629,296.229,301.714,256,301.714z M310.857,411.429
			c0,30.171-24.686,54.857-54.857,54.857s-54.857-24.686-54.857-54.857v-36.571C201.143,344.686,225.829,320,256,320
			s54.857,24.686,54.857,54.857V411.429z"/>
	</g>
</g>
<g>
	<g>
		<path d="M245.029,259.657c-2.743-4.571-8.229-5.486-12.8-2.743l-100.571,64c-1.829,1.829-2.743,3.657-3.657,6.4l-26.514,143.543
			l-25.6,25.6c-3.657,3.657-3.657,9.143,0,12.8c1.829,1.829,3.657,2.743,6.4,2.743s4.571-0.914,6.4-2.743l27.429-27.429
			c1.829-0.914,2.743-2.743,2.743-4.571l26.514-142.629l96.914-62.171C246.857,269.714,247.771,264.229,245.029,259.657z"/>
	</g>
</g>
<g>
	<g>
		<path d="M210.286,219.429h-64c-1.829,0-3.657,0-4.571,0.914l-43.886,26.514H64c-5.486,0-9.143,3.657-9.143,9.143
			s3.657,9.143,9.143,9.143h36.571c1.829,0,3.657,0,4.571-0.914l43.886-26.514h61.257c5.486,0,9.143-3.657,9.143-9.143
			S215.771,219.429,210.286,219.429z"/>
	</g>
</g>
<g>
	<g>
		<path d="M212.114,182.857l-42.057-8.229l-32.914-49.371v-70.4c0-1.829-0.914-3.657-1.829-5.486l-18.286-27.429
			c-2.743-3.657-8.229-4.571-12.8-1.829c-3.657,2.743-4.571,8.229-1.829,12.8L118.857,57.6V128c0,1.829,0.914,3.657,1.829,5.486
			l36.571,54.857c0.914,1.829,2.743,2.743,5.486,3.657l45.714,9.143c0.914,0,0.914,0,1.829,0c4.571,0,8.229-2.743,9.143-7.314
			C220.343,188.343,216.686,183.771,212.114,182.857z"/>
	</g>
</g>
<g>
	<g>
		<path d="M228.571,54.857c-10.057,0-18.286-8.229-18.286-18.286c0-10.057,8.229-18.286,18.286-18.286
			c5.486,0,9.143-3.657,9.143-9.143S234.057,0,228.571,0C208.457,0,192,16.457,192,36.571c0,20.114,16.457,36.571,36.571,36.571
			c5.486,0,9.143-3.657,9.143-9.143S234.057,54.857,228.571,54.857z"/>
	</g>
</g>
<g>
	<g>
		<path d="M283.429,0c-5.486,0-9.143,3.657-9.143,9.143s3.657,9.143,9.143,9.143c10.057,0,18.286,8.229,18.286,18.286
			c0,10.057-8.229,18.286-18.286,18.286c-5.486,0-9.143,3.657-9.143,9.143s3.657,9.143,9.143,9.143
			c20.114,0,36.571-16.457,36.571-36.571C320,16.457,303.543,0,283.429,0z"/>
	</g>
</g>
<g>
	<g>
		<path d="M436.114,496.457l-25.6-25.6L384,327.314c0-2.743-1.829-5.486-3.657-6.4l-100.571-64
			c-4.571-2.743-10.057-1.829-12.8,2.743c-2.743,4.571-1.829,10.057,2.743,12.8l96.914,62.171l26.514,142.629
			c0.914,1.829,1.829,3.657,2.743,4.571l27.429,27.429c1.829,1.829,3.657,2.743,6.4,2.743s4.571-0.914,6.4-2.743
			C439.771,505.6,439.771,500.114,436.114,496.457z"/>
	</g>
</g>
<g>
	<g>
		<path d="M448,246.857h-33.829l-43.886-26.514c-0.914-0.914-2.743-0.914-4.571-0.914h-64c-5.486,0-9.143,3.657-9.143,9.143
			s3.657,9.143,9.143,9.143h61.257l43.886,26.514c0.914,0.914,2.743,0.914,4.571,0.914H448c5.486,0,9.143-3.657,9.143-9.143
			S453.486,246.857,448,246.857z"/>
	</g>
</g>
<g>
	<g>
		<path d="M407.771,19.2c-4.571-2.743-10.057-1.829-12.8,2.743l-18.286,27.429c-0.914,1.829-1.829,3.657-1.829,5.486v70.4
			l-32.914,49.371l-42.057,8.229c-5.486,0.914-8.229,6.4-7.314,10.971c0.914,4.571,4.571,7.314,9.143,7.314c0.914,0,0.914,0,1.829,0
			L349.257,192c1.829,0,4.571-1.829,5.486-3.657l36.571-54.857c0.914-1.829,1.829-3.657,1.829-5.486V57.6L410.514,32
			C413.257,27.429,412.343,21.943,407.771,19.2z"/>
	</g>
</g>
<g>
</g>
<g>
</g>
<g>
</g>
<g>
</g>
<g>
</g>
<g>
</g>
<g>
</g>
<g>
</g>
<g>
</g>
<g>
</g>
<g>
</g>
<g>
</g>
<g>
</g>
<g>
</g>
<g>
</g>
</svg>
